# xmcd CD database file
#
# Track frame offsets:
#	180
#	21803
#	48119
#	70104
#	84930
#	104160
#	132437
#	163169
#	179009
#	206577
#	229047
#	250891
#
# Disc length: 3632 seconds
#
# Revision: 4
# Processed by: cddbd v1.5.2PL0 Copyright (c) Steve Scherf et al.
# Submitted via: CDex 1.51
#
DISCID=a40e2e0c
DTITLE=Z Z TOP - The Best Of Blues
DYEAR=1997
DGENRE=Southern Rock
TTITLE0=2000 Blues
TTITLE1=Cover Your Rig
TTITLE2=Rough Boy
TTITLE3=Hot Blue And Righteous
TTITLE4=A Fool For Your Stockings
TTITLE5=I Need You Tonight
TTITLE6=Sure Got Cold After The Rain Fell
TTITLE7=Old Man
TTITLE8=Vincent Price Blues
TTITLE9=Breakaway
TTITLE10=Tell It
TTITLE11=Blue Jean Blues
EXTD=Digitally Remastered 1997 Verbatim - AZO YEAR: 1997
EXTT0=
EXTT1=
EXTT2=
EXTT3=
EXTT4=
EXTT5=
EXTT6=
EXTT7=
EXTT8=
EXTT9=
EXTT10=
EXTT11=
PLAYORDER=
